<svg width="532" height="554" viewBox="0 0 532 554" fill="none" xmlns="http://www.w3.org/2000/svg">
<path fill-rule="evenodd" clip-rule="evenodd" d="M263.064 553.631C254.734 553.551 244.104 553.101 239.424 552.631C234.744 552.151 224.404 550.581 216.424 549.151C208.444 547.711 196.974 545.041 190.924 543.221C184.874 541.391 174.994 537.831 168.964 535.301C162.944 532.781 154.644 528.901 150.534 526.681C146.424 524.461 138.054 519.351 131.934 515.331C125.814 511.301 116.334 504.401 110.864 500.001C105.394 495.591 95.7344 486.641 89.3844 480.121C83.0444 473.601 74.7444 464.331 70.9544 459.531C67.1544 454.731 61.4144 447.111 58.1944 442.611C54.9744 438.101 48.7544 428.621 44.3544 421.531C39.9644 414.441 33.5044 402.931 30.0044 395.951C26.5044 388.971 22.0644 379.441 20.1444 374.761C18.2244 370.081 15.2444 362.271 13.5244 357.391C11.8044 352.521 9.28439 344.191 7.93439 338.891C6.57439 333.591 4.56439 323.641 3.45439 316.761C2.35439 309.881 1.0144 297.281 0.474399 288.761C-0.135601 279.071 -0.155601 266.331 0.404399 254.761C0.904399 244.581 2.01439 232.211 2.88439 227.261C3.74439 222.311 5.4044 213.991 6.5644 208.761C7.7344 203.531 10.4644 194.081 12.6444 187.761C14.8144 181.441 18.4044 171.821 20.6244 166.401C22.8444 160.981 26.8544 152.081 29.5344 146.631C32.2144 141.171 37.5344 131.211 41.3444 124.491C45.1544 117.761 50.5044 109.111 53.2344 105.261C55.9544 101.411 60.5344 95.5606 63.4044 92.2606C66.2844 88.9606 73.6444 81.1606 79.7744 74.9206C85.9044 68.6806 94.9744 60.2906 99.9244 56.2906C104.874 52.2806 113.424 45.9706 118.924 42.2706C124.424 38.5706 136.574 31.7906 145.924 27.2206C155.274 22.6406 168.214 17.0806 174.684 14.8606C181.154 12.6506 191.954 9.49058 198.684 7.84058C205.414 6.20058 214.974 4.17058 219.924 3.33058C224.874 2.49058 235.444 1.29058 243.424 0.670583C251.404 0.0405828 263.104 -0.189417 269.424 0.170583C275.744 0.530583 286.324 1.50058 292.924 2.35058C299.524 3.19058 308.744 4.73058 313.424 5.77058C318.104 6.82058 326.544 9.05058 332.184 10.7306C337.834 12.4106 347.054 15.6206 352.684 17.8606C358.304 20.1006 368.984 25.0306 376.414 28.8006C383.844 32.5806 394.874 38.8906 400.924 42.8206C406.974 46.7606 417.324 54.3006 423.924 59.5806C430.524 64.8606 441.434 74.7706 448.174 81.6006C454.914 88.4406 464.594 99.3906 469.674 105.951C474.764 112.501 482.584 123.581 487.064 130.561C491.544 137.551 498.454 149.751 502.424 157.681C506.384 165.611 511.584 177.141 513.964 183.301C516.344 189.461 519.674 199.251 521.364 205.051C523.054 210.861 525.294 219.801 526.344 224.931C527.394 230.061 529.074 239.441 530.064 245.761C531.494 254.821 531.884 263.201 531.904 285.261C531.924 307.431 531.544 315.651 530.114 324.761C529.124 331.081 527.194 341.161 525.814 347.151C524.444 353.141 521.954 362.371 520.274 367.651C518.594 372.941 515.654 381.081 513.744 385.761C511.844 390.441 507.584 399.601 504.294 406.121C501.004 412.641 496.044 421.641 493.264 426.121C490.484 430.601 485.934 437.411 483.154 441.261C480.364 445.111 474.674 452.301 470.504 457.241C466.334 462.181 458.874 470.321 453.924 475.321C448.974 480.331 440.204 488.211 434.434 492.841C428.664 497.471 417.864 505.311 410.434 510.261C403.004 515.211 390.854 522.261 383.424 525.921C375.994 529.581 364.274 534.611 357.374 537.101C350.474 539.591 339.674 542.991 333.374 544.661C327.074 546.331 316.744 548.601 310.424 549.701C304.104 550.801 294.264 552.171 288.564 552.731C282.874 553.301 271.394 553.701 263.064 553.631ZM237.424 508.221C257.494 508.011 270.604 507.391 278.424 506.301C284.744 505.411 295.104 503.531 301.424 502.121C307.744 500.711 318.324 497.991 324.924 496.081C331.524 494.171 341.874 490.661 347.924 488.281C353.974 485.911 362.744 482.181 367.424 480.011C372.104 477.841 381.034 473.031 387.274 469.321C393.514 465.611 402.514 459.861 407.274 456.541C412.034 453.221 419.584 447.411 424.054 443.631C428.524 439.851 436.734 432.031 442.294 426.251C447.864 420.471 455.184 412.261 458.574 408.001C461.954 403.741 467.064 396.661 469.904 392.261C472.754 387.861 477.394 379.961 480.224 374.701C483.044 369.441 486.954 361.001 488.904 355.951C490.854 350.891 493.344 343.041 494.434 338.511C495.524 333.971 496.414 328.911 496.414 327.261C496.414 324.261 496.414 324.261 491.674 329.481C489.064 332.351 485.374 335.841 483.484 337.231C481.584 338.621 479.644 339.761 479.174 339.761C478.694 339.761 478.614 335.491 479.004 330.261C479.384 325.031 479.464 320.761 479.184 320.761C478.904 320.761 477.644 323.571 476.394 327.011C475.134 330.451 471.104 339.561 467.434 347.261C463.754 354.961 458.664 364.771 456.114 369.051C453.554 373.341 448.874 380.311 445.694 384.551C442.524 388.781 436.094 396.091 431.424 400.801C426.754 405.501 420.544 410.801 417.624 412.571C412.754 415.541 412.434 415.621 413.534 413.531C414.194 412.281 417.974 407.441 421.934 402.761C425.884 398.081 431.834 390.661 435.144 386.261C438.454 381.861 443.524 374.661 446.394 370.261C449.264 365.861 454.034 357.311 456.994 351.261C459.954 345.211 464.154 334.861 466.334 328.261C468.514 321.661 470.974 312.881 471.804 308.761C472.634 304.641 473.794 296.601 474.374 290.901C474.954 285.211 475.424 276.431 475.424 271.401C475.424 266.371 474.964 257.451 474.414 251.581C473.854 245.711 472.314 235.581 470.984 229.081C469.664 222.581 467.144 212.761 465.384 207.261C463.634 201.761 460.424 192.991 458.254 187.761C456.094 182.531 452.054 174.001 449.274 168.801C446.504 163.601 441.914 155.721 439.074 151.301C436.244 146.881 430.624 139.031 426.584 133.871C422.554 128.701 413.984 118.581 407.554 111.371C401.124 104.161 394.634 96.4306 393.134 94.1906C391.624 91.9506 386.554 86.7806 381.844 82.6906C377.144 78.6106 368.944 72.4106 363.614 68.9106C358.284 65.4206 350.014 60.5906 345.234 58.1806C340.454 55.7706 332.804 52.2506 328.234 50.3606C323.664 48.4706 314.024 44.9006 306.804 42.4306C299.594 39.9606 289.244 37.0206 283.804 35.8906C278.374 34.7706 269.654 33.3206 264.424 32.6806C258.584 31.9606 248.954 31.7406 239.424 32.1006C230.904 32.4306 218.304 33.6206 211.424 34.7506C204.544 35.8906 192.854 38.4106 185.424 40.3506C177.994 42.3006 165.854 46.1506 158.424 48.9106C150.994 51.6706 138.414 57.3206 130.454 61.4606C122.494 65.6106 112.594 71.2706 108.454 74.0506C104.314 76.8306 96.6444 82.5106 91.4244 86.6606C86.2044 90.8206 76.8044 99.1806 70.5444 105.241C64.2944 111.301 55.5744 120.691 51.1644 126.111C46.7644 131.531 40.7044 139.861 37.7044 144.611C34.7044 149.371 30.5444 156.641 28.4644 160.761C26.3744 164.881 22.9844 172.761 20.9244 178.261C18.8644 183.761 15.8644 192.761 14.2744 198.261C12.6844 203.761 10.3044 214.111 8.9944 221.261C7.6744 228.411 6.0444 240.061 5.3644 247.141C4.5744 255.431 4.34439 267.011 4.73439 279.641C5.06439 290.431 6.04439 303.991 6.91439 309.761C7.77439 315.531 9.8644 325.871 11.5544 332.721C13.2344 339.571 16.4544 350.361 18.7044 356.701C20.9544 363.041 26.7244 376.111 31.5244 385.741C36.3344 395.381 42.4144 406.641 45.0444 410.761C47.6744 414.881 52.5344 421.861 55.8544 426.261C59.1644 430.661 66.8444 439.221 72.9044 445.271C78.9644 451.331 87.7444 459.261 92.4244 462.901C97.1044 466.531 104.744 471.951 109.424 474.941C114.104 477.931 121.304 482.211 125.434 484.461C129.554 486.711 137.804 490.621 143.754 493.161C149.704 495.711 158.984 499.091 164.364 500.701C169.754 502.301 179.734 504.531 186.544 505.651C193.354 506.781 200.944 507.891 203.424 508.121C205.904 508.351 221.194 508.401 237.424 508.221ZM250.924 500.061C247.074 500.301 238.744 500.161 232.424 499.741C226.104 499.331 216.874 498.231 211.924 497.311C206.974 496.381 198.874 494.471 193.924 493.061C188.974 491.641 181.084 489.031 176.384 487.241C171.694 485.451 162.014 481.061 154.884 477.481C147.754 473.901 137.874 468.301 132.924 465.041C127.974 461.781 119.204 455.331 113.424 450.691C107.644 446.061 97.5144 436.871 90.8944 430.271C84.2744 423.661 75.0844 413.531 70.4644 407.761C65.8444 401.991 59.2644 392.991 55.8444 387.761C52.4344 382.531 47.3644 373.991 44.5844 368.761C41.8044 363.531 37.4944 353.991 35.0044 347.541C32.5144 341.101 29.5944 332.321 28.5144 328.041C27.4344 323.761 25.8044 316.211 24.8944 311.261C23.9644 306.161 23.0144 294.151 22.7044 283.561C22.3644 271.771 22.6044 261.241 23.3644 255.061C24.0144 249.671 25.6844 240.141 27.0744 233.881C28.4544 227.621 31.1644 217.941 33.0944 212.381C35.0244 206.811 39.4344 196.391 42.9044 189.221C46.3644 182.051 52.8044 170.801 57.2044 164.221C61.6044 157.641 69.4544 147.311 74.6444 141.261C79.8344 135.211 88.2244 126.331 93.2944 121.521C98.3644 116.711 105.604 110.301 109.394 107.281C113.184 104.261 121.384 98.4606 127.604 94.4006C133.834 90.3506 143.874 84.5506 149.924 81.5206C155.974 78.5006 166.444 73.9506 173.194 71.4206C179.934 68.8906 191.414 65.2506 198.694 63.3406C205.974 61.4206 216.874 59.0906 222.924 58.1506C230.274 57.0106 239.904 56.4506 251.924 56.4506C265.614 56.4606 272.944 56.9706 282.524 58.5806C289.454 59.7506 300.284 62.2706 306.604 64.1806C312.914 66.1006 323.444 70.0706 330.004 73.0106C336.554 75.9606 346.154 80.9506 351.314 84.1206C356.484 87.2806 363.944 92.3006 367.884 95.2606C371.834 98.2306 377.254 103.011 379.934 105.881C383.894 110.111 384.504 111.211 383.154 111.681C381.964 112.101 381.764 112.681 382.444 113.761C382.964 114.591 383.404 115.601 383.404 116.011C383.414 116.421 382.744 116.761 381.914 116.761C381.084 116.761 372.424 112.771 362.664 107.881C352.904 103.001 340.654 97.2006 335.424 94.9806C330.194 92.7606 321.424 89.5606 315.924 87.8606C310.424 86.1606 300.524 83.5906 293.924 82.1606C283.864 79.9806 278.494 79.4806 260.664 79.0406C246.994 78.7006 235.934 78.9406 229.664 79.7106C224.304 80.3706 214.954 81.9806 208.874 83.2806C202.804 84.5806 193.424 87.0506 188.044 88.7706C182.664 90.5006 173.464 93.9106 167.594 96.3706C161.724 98.8206 152.874 103.121 147.924 105.921C142.974 108.721 134.644 113.951 129.424 117.541C124.204 121.131 116.684 126.711 112.734 129.931C108.774 133.161 101.424 139.951 96.3844 145.031C91.3544 150.101 83.4044 159.331 78.7344 165.531C74.0644 171.721 67.9644 180.721 65.1844 185.531C62.4044 190.331 58.6944 197.411 56.9444 201.261C55.1844 205.111 52.5744 211.641 51.1444 215.761C49.7044 219.881 47.6344 226.861 46.5244 231.261C45.4144 235.661 43.7644 244.881 42.8644 251.761C41.6344 261.051 41.3444 268.501 41.7544 280.761C42.1144 291.921 42.9844 300.501 44.4144 307.261C45.5844 312.761 48.1044 321.991 50.0244 327.761C51.9444 333.531 55.8944 343.211 58.7944 349.261C61.7044 355.311 66.5544 364.081 69.5744 368.761C72.6044 373.441 78.6844 381.761 83.0944 387.261C87.5044 392.761 94.8944 400.871 99.5144 405.281C104.144 409.691 111.074 415.791 114.924 418.851C118.774 421.901 124.634 426.221 127.934 428.451C131.244 430.691 137.724 434.601 142.324 437.151C146.934 439.691 154.804 443.631 159.814 445.901C164.824 448.161 174.764 452.011 181.894 454.441C194.024 458.591 194.944 458.761 196.144 457.131C196.844 456.161 197.424 454.841 197.424 454.191C197.424 453.541 198.164 452.391 199.064 451.641C199.974 450.891 209.984 445.921 221.314 440.591C239.664 431.961 242.114 430.521 243.684 427.481C244.704 425.501 245.854 419.871 246.414 414.161C246.944 408.711 247.384 399.761 247.394 394.261C247.404 388.761 246.954 381.331 246.384 377.761C245.824 374.191 244.024 368.491 242.384 365.111C240.424 361.081 236.214 355.591 230.164 349.191C225.084 343.831 214.894 334.261 207.524 327.941C200.154 321.611 188.454 310.611 181.524 303.501C174.594 296.381 166.224 288.401 162.924 285.771C159.624 283.141 154.224 279.411 150.924 277.481C147.624 275.551 142.484 273.251 139.494 272.371C136.504 271.481 133.464 270.761 132.744 270.761C132.014 270.761 131.424 271.131 131.424 271.581C131.424 272.021 133.234 273.411 135.444 274.651C137.654 275.891 144.064 280.491 149.694 284.871C155.324 289.251 166.904 299.711 175.424 308.121C183.944 316.521 196.884 328.701 204.174 335.181C211.984 342.121 219.904 350.251 223.464 354.971C226.774 359.371 230.334 364.631 231.364 366.651C232.394 368.671 234.064 373.011 235.064 376.291C236.564 381.171 236.904 385.731 236.914 401.261C236.924 414.341 236.514 421.401 235.624 423.931C234.904 425.951 233.604 428.201 232.724 428.931C231.274 430.131 231.194 429.771 231.864 425.301C232.274 422.571 232.594 413.341 232.564 404.801C232.544 396.251 232.044 386.781 231.464 383.761C230.874 380.741 229.244 375.981 227.844 373.201C226.434 370.411 222.794 365.341 219.754 361.921C216.704 358.501 212.844 355.001 211.174 354.131C209.384 353.201 202.154 351.971 193.534 351.111C185.494 350.321 175.994 349.051 172.424 348.311C168.854 347.561 163.344 345.971 160.184 344.791C157.034 343.601 151.754 340.831 148.464 338.631C145.164 336.431 140.094 332.001 137.194 328.791C134.294 325.581 129.724 319.311 127.034 314.851C124.344 310.391 120.594 302.641 118.714 297.621C116.824 292.601 114.244 284.161 112.964 278.881C111.694 273.591 110.404 267.581 110.104 265.521C109.654 262.461 109.944 261.511 111.714 260.271C113.384 259.101 116.984 258.761 127.774 258.761C141.684 258.761 141.684 258.761 140.804 253.511C140.324 250.621 139.964 241.961 140.014 234.261C140.084 222.741 140.574 218.371 142.734 209.571C144.174 203.701 147.184 193.271 149.414 186.401C151.654 179.531 154.284 172.921 155.264 171.711C156.554 170.121 157.644 169.701 159.184 170.181C160.364 170.561 165.344 175.111 170.244 180.291C179.174 189.721 179.174 189.721 181.264 183.991C182.414 180.841 184.974 175.571 186.954 172.291C188.924 169.001 193.104 162.721 196.234 158.341C199.364 153.951 207.104 145.111 213.424 138.701C219.744 132.291 227.494 125.351 230.644 123.281C233.784 121.211 237.024 119.781 237.834 120.091C238.654 120.401 240.664 125.071 242.384 130.621C244.074 136.101 247.274 147.721 249.504 156.431C251.724 165.131 254.184 176.531 254.974 181.761C255.764 186.991 256.414 196.951 256.414 203.901C256.424 211.041 255.764 219.961 254.914 224.401C254.084 228.721 252.104 236.311 250.504 241.261C248.904 246.211 246.464 252.961 245.074 256.261C243.694 259.561 242.004 266.311 241.324 271.261C240.644 276.211 240.054 291.061 240.004 304.261C239.964 317.461 240.264 329.461 240.674 330.921C241.084 332.381 243.934 336.881 247.004 340.921C250.084 344.961 253.424 349.871 254.444 351.851C255.464 353.821 257.254 359.221 258.414 363.851C259.584 368.471 260.984 373.951 261.524 376.011C262.064 378.071 263.064 379.761 263.754 379.761C264.444 379.761 267.694 377.491 270.964 374.721C274.244 371.941 282.324 366.021 288.924 361.561C295.524 357.101 304.074 350.911 307.924 347.801C311.774 344.681 318.744 339.251 323.424 335.711C328.104 332.181 335.284 327.371 339.404 325.021C344.974 321.851 346.244 320.761 344.404 320.771C343.034 320.771 336.874 322.961 330.694 325.631C324.514 328.311 315.064 333.111 309.694 336.301C304.324 339.501 297.444 343.931 294.424 346.151C291.404 348.371 287.004 351.961 284.644 354.121C282.294 356.291 278.774 360.241 276.814 362.911C274.854 365.581 272.784 367.761 272.204 367.761C271.524 367.761 271.384 366.071 271.794 363.011C272.154 360.401 273.554 356.011 274.904 353.261C276.254 350.511 280.104 345.221 283.474 341.511C286.834 337.791 292.814 332.121 296.754 328.901C300.694 325.681 307.174 320.941 311.144 318.371C315.114 315.811 321.414 312.341 325.144 310.661C328.874 308.981 335.744 306.481 340.424 305.091C346.954 303.161 352.074 302.451 362.494 302.031C370.824 301.701 378.644 301.941 382.724 302.651C386.384 303.291 392.194 304.691 395.654 305.771C399.104 306.851 403.404 308.641 405.204 309.751C408.134 311.551 408.364 312.011 407.314 313.961C406.674 315.161 403.684 319.101 400.664 322.701C397.654 326.311 389.834 334.751 383.304 341.451C376.764 348.161 368.504 355.811 364.934 358.451C361.364 361.101 355.694 364.921 352.344 366.951C348.994 368.981 343.024 371.991 339.084 373.621C335.144 375.261 328.324 377.311 323.924 378.181C319.524 379.051 309.684 380.441 302.064 381.261C293.134 382.231 286.574 383.491 283.614 384.801C281.084 385.911 276.634 388.621 273.734 390.821C270.834 393.011 267.794 396.081 266.984 397.651C266.134 399.291 264.824 407.481 263.904 416.881C263.034 425.891 261.864 434.971 261.314 437.051C260.524 440.061 259.244 441.541 255.124 444.171C252.264 446.001 244.074 450.441 236.924 454.041C229.774 457.651 223.024 461.271 221.924 462.101C219.964 463.581 219.974 463.631 222.634 464.651C224.124 465.211 233.194 466.201 242.774 466.831C256.034 467.711 263.894 467.711 275.564 466.821C284.014 466.171 296.814 464.551 304.004 463.231C311.204 461.901 322.524 459.241 329.174 457.331C335.834 455.421 345.634 452.221 350.964 450.221C356.284 448.231 365.614 444.161 371.684 441.181C377.754 438.201 383.664 435.781 384.824 435.791C386.514 435.821 385.724 436.971 380.784 441.671C377.404 444.881 370.434 450.111 365.284 453.301C360.134 456.481 351.564 461.271 346.244 463.941C340.924 466.611 330.574 470.781 323.244 473.211C315.914 475.641 304.304 478.771 297.424 480.161C290.544 481.561 279.074 483.411 271.924 484.281C264.774 485.141 257.854 486.081 256.554 486.351C255.254 486.631 254.504 487.171 254.884 487.551C255.264 487.931 258.534 488.921 262.144 489.751C265.854 490.601 269.164 491.981 269.764 492.931C270.514 494.131 270.454 495.021 269.544 496.121C268.844 496.961 265.944 498.091 263.094 498.641C260.254 499.181 254.774 499.821 250.924 500.061ZM222.604 323.151C223.054 322.871 223.424 313.531 223.424 302.401C223.424 282.151 223.424 282.151 219.824 278.711C217.834 276.811 213.954 271.921 211.184 267.851C208.414 263.771 204.604 257.111 202.734 253.051C200.854 248.981 198.464 242.331 197.424 238.271C196.384 234.211 195.224 227.031 194.844 222.321C194.364 216.361 194.484 213.761 195.244 213.761C195.844 213.761 197.964 216.121 199.954 219.011C201.944 221.901 206.494 228.741 210.064 234.211C213.644 239.681 218.394 247.231 220.634 250.991C222.864 254.761 225.144 257.691 225.684 257.511C226.224 257.331 229.134 251.571 232.154 244.721C235.164 237.871 238.554 230.011 239.684 227.261C241.194 223.551 241.844 219.221 242.194 210.511C242.454 204.051 242.134 194.371 241.474 189.011C240.814 183.651 239.614 175.881 238.794 171.761C237.984 167.641 236.384 160.771 235.254 156.511C234.084 152.091 232.674 148.761 231.954 148.761C231.274 148.761 225.124 154.501 218.294 161.511C211.474 168.521 203.744 177.491 201.124 181.441C198.504 185.391 195.064 191.481 193.484 194.961C191.904 198.441 190.064 204.121 189.384 207.581C188.684 211.111 188.404 216.571 188.734 220.061C189.054 223.471 190.944 232.901 192.944 241.021C194.934 249.141 196.404 256.791 196.204 258.021C195.924 259.821 195.244 259.071 192.774 254.261C191.074 250.961 187.814 242.301 185.524 235.011C183.234 227.731 179.304 217.721 176.774 212.791C174.254 207.851 171.564 203.291 170.804 202.661C169.684 201.731 169.424 202.061 169.424 204.391C169.434 205.971 168.924 215.581 168.314 225.761C167.704 235.941 166.834 244.651 166.384 245.141C165.944 245.621 164.684 243.141 163.604 239.641C161.634 233.261 161.634 233.261 160.934 236.911C160.554 238.911 160.464 246.501 160.724 253.761C161.074 263.121 161.614 267.331 162.564 268.181C163.314 268.841 167.744 272.601 172.424 276.531C177.104 280.461 190.114 292.671 201.354 303.671C212.584 314.661 222.144 323.431 222.604 323.151ZM253.184 306.761C252.764 306.761 252.424 306.131 252.424 305.371C252.424 304.601 253.344 301.001 254.464 297.381C255.584 293.751 257.804 287.881 259.394 284.321C260.994 280.771 264.534 274.541 267.274 270.491C270.004 266.431 274.874 260.451 278.084 257.191C281.294 253.931 286.744 249.091 290.184 246.451C293.624 243.801 300.144 239.671 304.684 237.271C309.214 234.861 316.074 231.711 319.924 230.271C323.774 228.821 329.854 226.951 333.424 226.101C336.994 225.261 343.744 224.221 348.424 223.781C353.104 223.341 361.424 223.381 366.924 223.861C372.424 224.341 379.624 225.431 382.924 226.291C386.224 227.151 389.564 228.491 390.354 229.271C391.434 230.351 391.524 231.241 390.734 232.971C390.154 234.231 385.624 240.661 380.654 247.261C375.684 253.861 368.654 262.531 365.034 266.531C361.414 270.521 355.264 276.661 351.364 280.171C347.474 283.691 341.714 287.931 338.574 289.601C335.434 291.271 328.934 293.781 324.124 295.171C319.314 296.571 310.554 298.611 304.654 299.711C298.754 300.821 286.484 302.411 277.394 303.251C268.314 304.081 259.314 305.221 257.404 305.771C255.494 306.311 253.594 306.761 253.184 306.761ZM260.674 237.331C257.234 239.321 254.424 240.561 254.424 240.101C254.424 239.641 255.304 234.761 256.364 229.261C257.434 223.761 259.274 213.411 260.454 206.261C261.624 199.111 263.394 191.461 264.364 189.261C265.344 187.061 271.864 179.201 278.864 171.791C285.854 164.371 291.124 158.161 290.584 157.981C290.034 157.801 287.184 159.301 284.254 161.311C279.614 164.511 279.374 164.581 282.424 161.911C284.354 160.231 290.814 155.921 296.784 152.341C302.754 148.751 311.304 144.411 315.784 142.681C320.264 140.951 328.194 138.411 333.424 137.051C339.674 135.421 346.944 134.391 354.674 134.031C366.424 133.491 366.424 133.491 366.414 140.371C366.414 144.161 365.504 153.421 364.404 160.951C363.294 168.481 361.254 178.611 359.864 183.451C358.474 188.301 355.714 195.731 353.744 199.961C351.764 204.201 349.144 208.611 347.924 209.761C346.164 211.411 343.564 212.081 335.804 212.861C330.374 213.411 321.444 214.761 315.964 215.871C310.484 216.981 301.034 219.491 294.964 221.451C288.894 223.401 280.104 226.971 275.424 229.361C270.744 231.761 264.114 235.351 260.674 237.331ZM272.504 217.101C274.254 216.091 278.454 212.771 281.834 209.731C285.204 206.691 289.774 202.191 291.974 199.731C294.174 197.271 298.214 192.561 300.944 189.261C303.684 185.961 309.974 179.041 314.924 173.891C319.874 168.741 327.464 161.781 331.784 158.431C336.114 155.081 339.184 152.181 338.624 151.991C338.054 151.801 334.734 153.081 331.254 154.831C327.774 156.581 321.994 159.911 318.424 162.221C314.854 164.531 308.444 169.231 304.184 172.661C299.934 176.091 293.184 182.641 289.184 187.201C285.194 191.771 279.784 199.121 277.164 203.541C274.544 207.951 271.714 213.221 270.864 215.251C269.324 218.931 269.324 218.931 272.504 217.101Z" fill="#04C9FE"/>
</svg>
